<svg id="Capa_1" enable-background="new 0 0 512.085 512.085" height="512" viewBox="0 0 512.085 512.085" width="512" xmlns="http://www.w3.org/2000/svg"><g><g><path d="m457.442 170.741h-325.487c-13.778 0-26.867 6.028-35.823 16.498l-77.228 90.278c-15.092 17.642-15.092 43.647 0 61.289l77.228 90.278c8.956 10.47 22.045 16.498 35.823 16.498h325.488c26.036 0 47.142-21.106 47.142-47.142v-180.557c0-26.036-21.107-47.142-47.143-47.142zm-381.321 161.875c-13.506 0-24.455-10.949-24.455-24.455s10.949-24.455 24.455-24.455 24.455 10.949 24.455 24.455-10.949 24.455-24.455 24.455z" fill="#eabc6b"/><g><path d="m457.443 170.741h-65.72c26.036 0 47.142 21.106 47.142 47.142v180.556c0 26.036-21.106 47.142-47.142 47.142h65.72c26.036 0 47.142-21.106 47.142-47.142v-180.556c0-26.036-21.107-47.142-47.142-47.142z" fill="#ebb044"/></g><g><g><g><g><path d="m147.993 265.71-17.55 45.546c-1.659 4.307 2.574 8.54 6.881 6.881l45.546-17.55c7.543-2.906 14.392-7.361 20.108-13.076l170.437-170.437c11.573-11.573 11.573-30.336 0-41.909-11.573-11.573-30.336-11.573-41.909 0l-170.437 170.437c-5.716 5.716-10.17 12.566-13.076 20.108z" fill="#dd636e"/></g></g><path d="m182.87 300.588c5.662-2.182 10.933-5.236 15.627-9.041l-41.464-41.464c-3.805 4.694-6.859 9.966-9.041 15.628l-17.55 45.546c-1.659 4.307 2.574 8.54 6.881 6.881z" fill="#938bc6"/><path d="m373.415 75.165c11.573 11.573 11.573 30.336 0 41.909l-16.047 16.047-41.909-41.909 16.047-16.047c11.573-11.573 30.336-11.573 41.909 0z" fill="#5766cb"/></g></g></g><g><path d="m140.994 263.015-17.549 45.545c-1.849 4.8-.739 10.04 2.898 13.678 3.65 3.65 8.895 4.742 13.678 2.898l45.546-17.55c8.575-3.304 16.217-8.273 22.714-14.771l154.38-154.381c.003-.003.007-.006.01-.009s.006-.007.009-.01l16.038-16.038c14.513-14.513 14.515-38.001 0-52.517-14.479-14.477-38.037-14.477-52.516 0l-16.046 16.046s0 0 0 0l-154.39 154.39c-6.498 6.502-11.468 14.143-14.772 22.719zm57.726 18.147-10.829-10.829 148.041-148.041 10.829 10.829zm138.089-200.693c8.631-8.631 22.673-8.63 31.303 0 8.65 8.65 8.652 22.651 0 31.302l-10.744 10.744-31.302-31.303zm-21.35 21.35 9.866 9.867-148.041 148.041-9.867-9.866zm-128.657 188.639c-2.12 1.193-4.327 2.245-6.628 3.132l-40.968 15.785 15.785-40.968c.886-2.301 1.938-4.508 3.132-6.628 10.277 10.277 18.371 18.371 28.679 28.679z"/><path d="m457.443 163.24h-101.108c-4.142 0-7.5 3.357-7.5 7.5s3.358 7.5 7.5 7.5h101.108c21.859 0 39.642 17.783 39.642 39.643v180.556c0 21.859-17.783 39.643-39.642 39.643h-325.488c-11.602 0-22.582-5.057-30.124-13.873l-77.228-90.277c-12.773-14.933-12.773-36.607 0-51.54l9.527-11.137 17.012 17.011c-4.36 5.463-6.976 12.377-6.976 19.895 0 17.62 14.335 31.955 31.955 31.955s31.955-14.335 31.955-31.955-14.335-31.955-31.955-31.955c-4.642 0-9.051 1.003-13.035 2.791l-19.175-19.175 57.92-67.708c7.542-8.816 18.522-13.873 30.124-13.873h68.217c4.142 0 7.5-3.357 7.5-7.5s-3.358-7.5-7.5-7.5h-68.217c-15.992 0-31.126 6.97-41.522 19.123l-57.16 66.819-19.554-19.553c-2.929-2.928-7.678-2.928-10.606 0-2.929 2.93-2.929 7.678 0 10.607l20.379 20.378-10.287 12.025c-17.606 20.581-17.606 50.459 0 71.04l77.228 90.277c10.396 12.153 25.531 19.123 41.522 19.123h325.488c30.13 0 54.642-24.513 54.642-54.643v-180.554c0-30.13-24.512-54.643-54.642-54.643zm-381.322 127.965c9.349 0 16.955 7.606 16.955 16.955s-7.606 16.955-16.955 16.955-16.955-7.606-16.955-16.955 7.606-16.955 16.955-16.955z"/><path d="m414.751 256.915h-123.833c-4.142 0-7.5 3.357-7.5 7.5s3.358 7.5 7.5 7.5h123.833c4.142 0 7.5-3.357 7.5-7.5s-3.358-7.5-7.5-7.5z"/><path d="m414.751 300.661h-123.833c-4.142 0-7.5 3.357-7.5 7.5s3.358 7.5 7.5 7.5h123.833c4.142 0 7.5-3.357 7.5-7.5s-3.358-7.5-7.5-7.5z"/><path d="m414.751 344.406h-220.333c-4.142 0-7.5 3.357-7.5 7.5s3.358 7.5 7.5 7.5h220.333c4.142 0 7.5-3.357 7.5-7.5s-3.358-7.5-7.5-7.5z"/></g></g></svg>